<svg id="Layer_1" data-name="Layer 1" xmlns="http://www.w3.org/2000/svg" viewBox="0 0 454.0268 443.1635"><defs><style>.cls-1{fill:#ce244d;}.cls-2{fill:#f7f7f7;}</style></defs><path class="cls-1" d="M-576.0417,248.6951c.0191-10.3217,9.1446-19.4679,19.3474-19.3914,10.4561.0784,19.3724,9.33,19.3251,20.0521-.044,9.9757-9.0642,18.8844-19.2448,19.0067A19.4234,19.4234,0,0,1-576.0417,248.6951Z" transform="translate(720.7552 -166.55)"/><path class="cls-2" d="M-517.5932,301.2987c7.8545.0521,14.8431,7.143,14.81,15.0263-.0352,8.2743-6.9992,15.4259-15.0232,15.428A15.1837,15.1837,0,0,1-532.79,316.9152,15.1793,15.1793,0,0,1-517.5932,301.2987Z" transform="translate(720.7552 -166.55)"/><path class="cls-2" d="M-516.3219,261.7715c-.0884-7.6925,6.7637-14.8462,14.3407-14.9722,8.1632-.1357,15.5429,6.8857,15.6572,14.8971.1061,7.4327-7.6,15.1043-15.1416,15.0745A15.216,15.216,0,0,1-516.3219,261.7715Z" transform="translate(720.7552 -166.55)"/><path class="cls-2" d="M-487.2879,560.0481a14.8116,14.8116,0,0,1,14.8586-14.7709,14.96,14.96,0,0,1,14.8838,14.85,15.0225,15.0225,0,0,1-14.9711,14.781A14.8094,14.8094,0,0,1-487.2879,560.0481Z" transform="translate(720.7552 -166.55)"/><path class="cls-2" d="M-405.5725,484.9485c.0368,7.908-6.8741,15.0355-14.705,15.1658-7.9269.132-15.0677-6.8066-15.1314-14.7028-.0633-7.8455,7-15.0868,14.7826-15.1542A15.1485,15.1485,0,0,1-405.5725,484.9485Z" transform="translate(720.7552 -166.55)"/><path class="cls-2" d="M-534.2027,385.5481c-7.815-.1355-14.922-7.3552-14.8693-15.1052.0546-8.0317,7.486-15.1705,15.5162-14.9052a15.13,15.13,0,0,1,14.4528,15.29C-519.2615,378.7741-526.35,385.6843-534.2027,385.5481Z" transform="translate(720.7552 -166.55)"/><path class="cls-2" d="M-514.497,389.4141a15.1759,15.1759,0,0,1,14.89,14.9051c-.0117,7.5918-7.4116,15.0617-14.9848,15.1265-7.5249.0644-14.7775-7.402-14.739-15.1736A15.0045,15.0045,0,0,1-514.497,389.4141Z" transform="translate(720.7552 -166.55)"/><path class="cls-2" d="M-436.6621,524.7936a14.7413,14.7413,0,0,1,14.7238,14.9718,15.08,15.08,0,0,1-14.5939,14.7522c-7.8564.0755-15.0585-7.1024-15.0117-14.9609A14.601,14.601,0,0,1-436.6621,524.7936Z" transform="translate(720.7552 -166.55)"/><path class="cls-2" d="M-401.0938,533.9339c-7.5329.1544-14.4384-6.68-14.7183-14.5665a14.8364,14.8364,0,0,1,14.4292-15.2183c8.0231-.2558,15.1986,6.7246,15.3662,14.9486C-385.861,526.7358-393.0074,533.768-401.0938,533.9339Z" transform="translate(720.7552 -166.55)"/><path class="cls-2" d="M-456.3512,490.9691a14.5635,14.5635,0,0,1,14.9461,14.7053c.0287,7.5826-7.0009,15.0577-14.3485,15.2579-7.7427.2109-15.0992-6.9649-15.2338-14.86A14.85,14.85,0,0,1-456.3512,490.9691Z" transform="translate(720.7552 -166.55)"/><path class="cls-2" d="M-511.2551,507.2457a14.7846,14.7846,0,0,1-14.8916-14.8319,14.9208,14.9208,0,0,1,15.0353-14.76,14.7277,14.7277,0,0,1,14.582,14.6569A14.6645,14.6645,0,0,1-511.2551,507.2457Z" transform="translate(720.7552 -166.55)"/><path class="cls-2" d="M-480.24,438.7882c-.1744,7.4058-7.7562,14.7868-14.9448,14.549-7.55-.25-14.9334-7.8879-14.8446-15.3563a14.99,14.99,0,0,1,15.565-14.6978C-486.4995,423.5214-480.0465,430.5554-480.24,438.7882Z" transform="translate(720.7552 -166.55)"/><path class="cls-2" d="M-546.3427,498.1538c7.7576.3332,14.4183,7.3874,14.2417,15.0831-.18,7.8305-7.5283,15.0479-15.1227,14.8525-8.03-.2064-15.0365-7.7-14.736-15.76C-561.6665,504.4654-554.3347,497.8105-546.3427,498.1538Z" transform="translate(720.7552 -166.55)"/><path class="cls-2" d="M-350.5425,498.33a14.6827,14.6827,0,0,1-14.8075,14.894,14.7632,14.7632,0,0,1-14.75-14.9772,14.6263,14.6263,0,0,1,14.5877-14.6127A14.6351,14.6351,0,0,1-350.5425,498.33Z" transform="translate(720.7552 -166.55)"/><path class="cls-2" d="M-506.1151,228.159c-.2067,8.2608-7.0845,14.9871-15.0459,14.7147-7.9228-.2711-15.2118-7.6572-14.9731-15.1728.2528-7.9622,7.8212-14.991,15.8854-14.753C-512.8,213.1678-505.9252,220.5668-506.1151,228.159Z" transform="translate(720.7552 -166.55)"/><path class="cls-2" d="M-637.9579,535.1824c-7.8807-.0459-15.022-7.1722-14.942-14.9106a15.1079,15.1079,0,0,1,14.9932-14.8063,15.43,15.43,0,0,1,14.9958,14.9109C-622.8508,528.1508-630.0437,535.2286-637.9579,535.1824Z" transform="translate(720.7552 -166.55)"/><path class="cls-2" d="M-467.2524,295.3667c-.0077,8.0791-6.757,15.146-14.6042,15.2914-7.7087.1428-14.8633-6.98-14.9717-14.9049A14.8324,14.8324,0,0,1-481.7036,280.69,14.7891,14.7891,0,0,1-467.2524,295.3667Z" transform="translate(720.7552 -166.55)"/><path class="cls-2" d="M-558.0613,302.9394a15.1922,15.1922,0,0,1-14.9047,14.8314c-7.9033.0124-14.7225-6.9075-14.749-14.9667-.0254-7.73,7.2827-15.1378,14.8467-15.049C-565.222,287.8448-557.9953,295.2556-558.0613,302.9394Z" transform="translate(720.7552 -166.55)"/><path class="cls-2" d="M-399.6234,464.7388A14.9089,14.9089,0,0,1-384.88,449.8334c8.2044-.03,15.38,7.1117,15.248,15.1755-.12,7.33-7.4876,14.3929-15.0243,14.4029A14.72,14.72,0,0,1-399.6234,464.7388Z" transform="translate(720.7552 -166.55)"/><path class="cls-2" d="M-571.1555,445.6883c-.0579,7.7537-7.3724,14.8717-15.1044,14.6988a15.1923,15.1923,0,0,1-14.52-15.2352c.124-7.9579,7.21-14.8767,15.0931-14.7363C-577.8509,430.5551-571.0955,437.655-571.1555,445.6883Z" transform="translate(720.7552 -166.55)"/><path class="cls-2" d="M-550.5573,439.619c-7.97-.1171-14.8322-7.2241-14.5884-15.1092a14.9289,14.9289,0,0,1,15.2551-14.4183c7.8124.1432,14.8756,7.38,14.7193,15.08C-535.3261,432.7975-542.7137,439.7342-550.5573,439.619Z" transform="translate(720.7552 -166.55)"/><path class="cls-2" d="M-459.354,432.4239c-7.8535-.0173-15.0728-7.162-15.01-14.8547.0654-8.0034,7.0981-15.0693,14.943-15.0136,7.8733.0558,14.9211,7.0944,15.0119,14.9923C-444.3192,425.36-451.4334,432.4415-459.354,432.4239Z" transform="translate(720.7552 -166.55)"/><path class="cls-2" d="M-566.3995,494.24c-7.5572.1274-14.7787-6.8089-14.9874-14.3956a15.0538,15.0538,0,0,1,14.7409-15.5151,15.0047,15.0047,0,0,1,15.0485,14.725C-551.5228,486.9168-558.5316,494.1074-566.3995,494.24Z" transform="translate(720.7552 -166.55)"/><path class="cls-2" d="M-314.6888,478.0614c-.0589,7.98-7.1733,15.0055-15.098,14.9094-7.66-.0928-14.9927-7.5822-14.8841-15.2022A15.35,15.35,0,0,1-329.5068,463.03,15.0046,15.0046,0,0,1-314.6888,478.0614Z" transform="translate(720.7552 -166.55)"/><path class="cls-2" d="M-490.4686,472.147a14.7167,14.7167,0,0,1,14.6893-15.0178c8.1782-.0764,15.4572,7.1343,15.2874,15.1437-.15,7.0628-7.8017,14.669-14.9484,14.8591C-483.0938,487.3357-490.429,480.0215-490.4686,472.147Z" transform="translate(720.7552 -166.55)"/><path class="cls-2" d="M-676.9462,467.4761a14.7152,14.7152,0,0,1-14.6958-14.8626,14.9534,14.9534,0,0,1,14.9552-14.7861,15.0041,15.0041,0,0,1,14.7038,14.9867A14.7268,14.7268,0,0,1-676.9462,467.4761Z" transform="translate(720.7552 -166.55)"/><path class="cls-2" d="M-491.8025,541.0982c-7.86.0531-15.2567-7.1782-15.1749-14.8357.0823-7.7152,7.454-14.8753,15.2378-14.8005a15.0022,15.0022,0,0,1,14.6826,14.5946A15.0425,15.0425,0,0,1-491.8025,541.0982Z" transform="translate(720.7552 -166.55)"/><path class="cls-2" d="M-498.4136,364.7127a14.6251,14.6251,0,0,1-14.6911-14.8767,14.9822,14.9822,0,0,1,14.9224-14.7916,15.0278,15.0278,0,0,1,14.7287,14.9989A14.7152,14.7152,0,0,1-498.4136,364.7127Z" transform="translate(720.7552 -166.55)"/><path class="cls-2" d="M-616.9925,499.7435a14.5214,14.5214,0,0,1,14.806-14.7165,14.4421,14.4421,0,0,1,14.7794,14.748,15.0863,15.0863,0,0,1-14.812,14.9379A15.0339,15.0339,0,0,1-616.9925,499.7435Z" transform="translate(720.7552 -166.55)"/><path class="cls-2" d="M-657.5036,501.3342c-7.7846.0018-15.277-7.3687-15.1154-14.87.1626-7.5422,7.6931-14.8751,15.2782-14.877a14.8634,14.8634,0,0,1,14.7189,14.9871A14.7468,14.7468,0,0,1-657.5036,501.3342Z" transform="translate(720.7552 -166.55)"/><path class="cls-2" d="M-530.6457,473.4216A14.5238,14.5238,0,0,1-545.5327,458.8a14.454,14.454,0,0,1,14.6255-14.9c7.9463-.053,15.1573,6.8682,15.2573,14.6443C-515.5506,466.2647-522.6923,473.35-530.6457,473.4216Z" transform="translate(720.7552 -166.55)"/><path class="cls-2" d="M-641.1684,417.32c8.0084.0235,15.0824,7.0394,14.9628,14.84-.122,7.956-7.08,15.0749-14.8366,15.18-7.3777.1-15.004-7.6207-14.9677-15.1536A14.9128,14.9128,0,0,1-641.1684,417.32Z" transform="translate(720.7552 -166.55)"/><path class="cls-2" d="M-478.9016,398.5792c-7.8129.041-15.2392-7.236-15.1271-14.8229.1117-7.5653,7.628-14.9594,15.1917-14.9449a14.8425,14.8425,0,0,1,14.7532,14.9422A14.8114,14.8114,0,0,1-478.9016,398.5792Z" transform="translate(720.7552 -166.55)"/><path class="cls-2" d="M-621.6054,451.1856a14.7737,14.7737,0,0,1,14.8,14.8378c.0584,7.5221-7.4526,15.1327-14.9556,15.154-7.5541.0215-14.7723-7.39-14.8494-15.2467C-636.6871,458.153-629.6084,451.1972-621.6054,451.1856Z" transform="translate(720.7552 -166.55)"/><path class="cls-2" d="M-620.1675,411.4319A14.9784,14.9784,0,0,1-605.28,396.5142c7.2784-.0062,15.4282,8.1445,15.1819,15.1837-.2744,7.8431-7.4779,14.77-15.3937,14.8033C-613.3727,426.534-620.18,419.5439-620.1675,411.4319Z" transform="translate(720.7552 -166.55)"/><path class="cls-2" d="M-425.0952,451.3007a15.1034,15.1034,0,0,1-14.8007,14.9516,14.7763,14.7763,0,0,1-14.7508-14.8574,14.8772,14.8772,0,0,1,14.6838-14.9955A15.21,15.21,0,0,1-425.0952,451.3007Z" transform="translate(720.7552 -166.55)"/><path class="cls-2" d="M-554.9369,391.1808a14.581,14.581,0,0,1-14.9189,14.6285c-8.13-.085-14.98-6.9716-14.8157-14.8969a15.03,15.03,0,0,1,15.1276-14.6184A14.4673,14.4673,0,0,1-554.9369,391.1808Z" transform="translate(720.7552 -166.55)"/><path class="cls-2" d="M-536.9055,297.0283a14.8215,14.8215,0,0,1-15.2105-14.4641,15.0342,15.0342,0,0,1,14.6578-15.0369,14.855,14.855,0,0,1,15.1664,14.5163A14.7894,14.7894,0,0,1-536.9055,297.0283Z" transform="translate(720.7552 -166.55)"/><path class="cls-2" d="M-334.3414,444.0923c.3963,9.0549-7.8227,14.6993-14.8434,15.0475-7.2169.358-14.6011-7.2929-14.6786-14.8091a15.1753,15.1753,0,0,1,14.7069-15.1364A14.92,14.92,0,0,1-334.3414,444.0923Z" transform="translate(720.7552 -166.55)"/><path class="cls-2" d="M-582.9572,518.8614a14.6919,14.6919,0,0,1,15.0127,14.5611,14.862,14.862,0,0,1-14.6488,15.0016c-7.6282.095-15.4015-7.3241-15.3778-14.6771C-597.9457,525.915-590.9226,518.9519-582.9572,518.8614Z" transform="translate(720.7552 -166.55)"/><path class="cls-2" d="M-512.87,547.0352c-.0991,7.8744-7.211,14.9195-15.0431,14.9019-7.4911-.0169-14.6287-7.6759-14.456-15.5119a15.18,15.18,0,0,1,14.84-14.4567A14.9445,14.9445,0,0,1-512.87,547.0352Z" transform="translate(720.7552 -166.55)"/><path class="cls-1" d="M-628.41,304.12a14.0658,14.0658,0,0,1-14.271-14.6c.1409-8.0418,6.7783-14.83,14.4263-14.7535,8.0974.0806,15.2328,7.3722,15.06,15.3891C-613.3617,297.8505-620.2891,304.2088-628.41,304.12Z" transform="translate(720.7552 -166.55)"/><path class="cls-1" d="M-683.4271,261.8333c8.1813-.0043,15.0382,6.591,15.1111,14.5349.0686,7.4646-7.5266,14.8409-15.2046,14.7666-7.6314-.0738-14.6621-7.1931-14.5638-14.7472C-697.9855,268.7913-690.9822,261.8372-683.4271,261.8333Z" transform="translate(720.7552 -166.55)"/><path class="cls-1" d="M-663.2609,295.6811c7.7039.0884,14.5622,7.2352,14.2837,14.8847a14.97,14.97,0,0,1-15.0547,14.2989c-7.4623-.1178-14.9077-7.6621-14.68-14.8748C-678.453,301.8054-671.7351,295.584-663.2609,295.6811Z" transform="translate(720.7552 -166.55)"/><path class="cls-1" d="M-608.4994,337.8667c-8.0149.0148-15.072-6.94-14.9422-14.7259.1227-7.3606,7.078-14.36,14.3968-14.4869a15.2527,15.2527,0,0,1,15.1536,15.203C-594.0433,331.1781-601.0031,337.8528-608.4994,337.8667Z" transform="translate(720.7552 -166.55)"/><path class="cls-1" d="M-629.6784,344.3265c-.0581,7.6455-7.0705,14.5362-14.7233,14.4679-7.649-.0683-14.5234-7.04-14.5-14.7041.0249-8.0158,6.9963-15.175,14.7132-15.11C-636.4315,329.0467-629.617,336.2538-629.6784,344.3265Z" transform="translate(720.7552 -166.55)"/><path class="cls-2" d="M-313.4309,412.5225c5.7958-.009,11.3159,5.2162,11.4993,10.8851.1767,5.4629-5.4938,11.0432-11.2945,11.1148A11.3131,11.3131,0,0,1-324.472,423.594,11.1236,11.1236,0,0,1-313.4309,412.5225Z" transform="translate(720.7552 -166.55)"/><path class="cls-2" d="M-316.7889,346.2894a10.8316,10.8316,0,0,1-10.7264-11.2784c.2177-5.71,5.47-10.9276,10.9366-10.8644a11.5371,11.5371,0,0,1,11.0542,11.2162A11.3282,11.3282,0,0,1-316.7889,346.2894Z" transform="translate(720.7552 -166.55)"/><path class="cls-2" d="M-297.11,357.9112c5.37-.0921,11.0352,5.7058,11.0533,11.3129a11.0253,11.0253,0,0,1-10.74,10.849,11.5724,11.5724,0,0,1-11.4911-10.7887C-308.5048,364.0156-302.5974,358.0052-297.11,357.9112Z" transform="translate(720.7552 -166.55)"/><path class="cls-2" d="M-404.1525,441.6933a10.9277,10.9277,0,0,1-11.0691-10.9656c.0793-5.4354,5.4955-11.0425,10.7273-11.1054,5.9453-.0715,11.4542,5.49,11.3988,11.5078C-393.1471,436.73-398.3654,441.7154-404.1525,441.6933Z" transform="translate(720.7552 -166.55)"/><path class="cls-2" d="M-462.97,340.2985a10.7662,10.7662,0,0,1-10.5714-11.4112,11.4587,11.4587,0,0,1,11.1588-10.5532c5.7329.0544,11.0831,5.5659,10.9779,11.3091C-451.5109,335.4327-456.9934,340.4838-462.97,340.2985Z" transform="translate(720.7552 -166.55)"/><path class="cls-2" d="M-387.7653,365.5147c5.7942.1215,11.3571,5.714,11.146,11.2054-.2028,5.2786-5.9073,10.7863-11.1736,10.7884-5.8643.0023-11.2771-5.32-11.2729-11.0848A11.2951,11.2951,0,0,1-387.7653,365.5147Z" transform="translate(720.7552 -166.55)"/><path class="cls-2" d="M-277.3627,413.8452c-5.8674.0675-11.4509-5.1469-11.4464-10.6894.0048-5.6633,5.3885-11.3323,10.9264-11.5052,5.5307-.1727,11.0957,5.3193,11.1537,11.0075C-266.6641,409.024-271.1792,413.7741-277.3627,413.8452Z" transform="translate(720.7552 -166.55)"/><path class="cls-2" d="M-412.5834,396.9031a11.2678,11.2678,0,0,1-11.181,10.9575,10.882,10.882,0,0,1-10.8374-11.188,11.418,11.418,0,0,1,10.8133-10.8446C-418.0416,385.74-412.55,391.1683-412.5834,396.9031Z" transform="translate(720.7552 -166.55)"/><path class="cls-2" d="M-432.1856,363.2712a10.7691,10.7691,0,0,1-10.6457,10.8253c-5.9595.1233-11.4584-5.0014-11.5306-10.7461-.0711-5.6592,5.5235-11.3264,11.12-11.2646A11.4858,11.4858,0,0,1-432.1856,363.2712Z" transform="translate(720.7552 -166.55)"/><path class="cls-2" d="M-357.5751,410.331A11.2543,11.2543,0,0,1-368.72,421.3842c-5.6906-.0646-11.0421-5.6688-10.8952-11.41.1415-5.5353,5.4921-10.7247,11.0394-10.707A11.0578,11.0578,0,0,1-357.5751,410.331Z" transform="translate(720.7552 -166.55)"/><path class="cls-2" d="M-332.8008,400.663a11.079,11.079,0,0,1-10.9678-10.6085,11.4982,11.4982,0,0,1,10.8174-11.3717,11.4623,11.4623,0,0,1,11.263,10.9447A11.2174,11.2174,0,0,1-332.8008,400.663Z" transform="translate(720.7552 -166.55)"/><path class="cls-2" d="M-341.3831,355.7527a10.826,10.826,0,0,1-10.9338,11.0709c-5.8675-.0047-11.2628-5.3538-11.1543-11.0588.106-5.5667,5.3232-10.7943,10.8922-10.9138A11.3347,11.3347,0,0,1-341.3831,355.7527Z" transform="translate(720.7552 -166.55)"/><path class="cls-2" d="M-294.14,446.3557a11.0333,11.0333,0,0,1,11.2226,10.8656c.1014,5.7986-5.1363,11.1117-11.0106,11.1692a11.2918,11.2918,0,0,1-10.9929-10.7023A11.2365,11.2365,0,0,1-294.14,446.3557Z" transform="translate(720.7552 -166.55)"/><path class="cls-2" d="M-543.9119,592.922c4.2436-.0526,8.4564,3.9207,8.5758,8.0883.1172,4.0948-4.5552,8.798-8.6449,8.7017-4.1833-.0985-8.145-4.2466-8.1268-8.5094A8.4472,8.4472,0,0,1-543.9119,592.922Z" transform="translate(720.7552 -166.55)"/><path class="cls-2" d="M-576.599,223.17c-4.29-.0277-8.428-4.0227-8.4186-8.1282a8.7456,8.7456,0,0,1,8.71-8.3252c4.2926.1358,8.2308,4.18,8.1448,8.3651A8.7027,8.7027,0,0,1-576.599,223.17Z" transform="translate(720.7552 -166.55)"/><path class="cls-2" d="M-508.0094,588.8927a8.1947,8.1947,0,0,1-8.342-8.0616,8.0451,8.0451,0,0,1,8.0069-8.3757,8.215,8.215,0,0,1,8.3413,8.03A8.234,8.234,0,0,1-508.0094,588.8927Z" transform="translate(720.7552 -166.55)"/><path class="cls-2" d="M-420.9308,310.9853a8.6674,8.6674,0,0,1-9.1173,7.4033,8.5029,8.5029,0,0,1-7.3633-9.0747c.5466-4.47,4.8821-8.1282,8.95-7.5523C-424.4064,302.3356-420.522,307.0936-420.9308,310.9853Z" transform="translate(720.7552 -166.55)"/><path class="cls-2" d="M-440.48,276.2947a8.61,8.61,0,0,1-8.1752,8.33,8.5261,8.5261,0,0,1-8.2637-8.2691c-.0812-4.1507,4.0846-8.4566,8.1971-8.4725C-444.5615,267.8673-440.5362,271.9753-440.48,276.2947Z" transform="translate(720.7552 -166.55)"/><path class="cls-2" d="M-369.908,558.3525c.1185,4.2373-3.8936,8.3081-8.2337,8.3543a8.5282,8.5282,0,0,1-8.4755-8.0661,8.63,8.63,0,0,1,8.1841-8.3785C-374.2408,550.1369-370.0259,554.1368-369.908,558.3525Z" transform="translate(720.7552 -166.55)"/><path class="cls-2" d="M-487.4873,217.0117a8.5207,8.5207,0,0,1-8.42-8.0116c-.1535-4.2791,4.1422-8.7407,8.4327-8.7585,3.7994-.0156,8.2133,4.5559,8.21,8.5034A8.5992,8.5992,0,0,1-487.4873,217.0117Z" transform="translate(720.7552 -166.55)"/><path class="cls-2" d="M-681.8783,541.1248a8.0307,8.0307,0,0,1,7.9757-8.3728,8.74,8.74,0,0,1,8.6627,7.9119c.1978,4.1029-3.813,8.2945-8.1373,8.5042C-677.519,549.369-681.7773,545.34-681.8783,541.1248Z" transform="translate(720.7552 -166.55)"/><path class="cls-2" d="M-654.2835,583.004a8.2835,8.2835,0,0,1-8.0716-8.3827,8.1483,8.1483,0,0,1,8.3017-8.1129,8.3059,8.3059,0,0,1,8.1048,8.3533A8.4657,8.4657,0,0,1-654.2835,583.004Z" transform="translate(720.7552 -166.55)"/><path class="cls-2" d="M-414,587.3217a8.1509,8.1509,0,0,1-8.2029-8.2273,8.4262,8.4262,0,0,1,8.238-8.2326c4.2359-.0353,8.41,4.0611,8.3576,8.2017C-405.66,583.22-409.9133,587.4049-414,587.3217Z" transform="translate(720.7552 -166.55)"/><path class="cls-2" d="M-506.9077,183.249c-4.0822.12-8.32-3.9639-8.401-8.0959-.0788-4.0253,4.0216-8.4471,7.9738-8.599,3.992-.1535,8.2968,4.0465,8.3828,8.1786A8.6764,8.6764,0,0,1-506.9077,183.249Z" transform="translate(720.7552 -166.55)"/><path class="cls-2" d="M-618.3082,562.3256a8.4866,8.4866,0,0,1-8.5467-8.02,8.551,8.551,0,0,1,8.2161-8.3871c4.2135-.0784,8.6332,4.029,8.6555,8.044A8.7967,8.7967,0,0,1-618.3082,562.3256Z" transform="translate(720.7552 -166.55)"/><path class="cls-2" d="M-459.7471,242.6966c-.0824,4.0758-4.2981,8.1663-8.434,8.1835a8.3874,8.3874,0,0,1-8.2551-8.207c-.0385-4.0878,4.1967-8.6287,8.0479-8.6287C-464.0458,234.0443-459.6609,238.4348-459.7471,242.6966Z" transform="translate(720.7552 -166.55)"/><path class="cls-2" d="M-603.4255,235.0274c.1046,4.095-3.9524,8.3058-8.1136,8.4211a8.0591,8.0591,0,0,1-8.5289-7.7571c-.1252-4.31,3.6222-8.5744,7.7012-8.7626C-607.9214,226.7237-603.5361,230.6956-603.4255,235.0274Z" transform="translate(720.7552 -166.55)"/><path class="cls-2" d="M-584.1024,268.72a8.2014,8.2014,0,0,1-7.9626,8.4377,8.0342,8.0342,0,0,1-8.4764-7.8894,8.3166,8.3166,0,0,1,7.9364-8.4974A8.4329,8.4329,0,0,1-584.1024,268.72Z" transform="translate(720.7552 -166.55)"/><path class="cls-2" d="M-555.0449,567.15c.0913,3.97-4.1406,8.6133-7.9754,8.7512-4.2757.1536-8.2613-3.7134-8.4244-8.1736a8.46,8.46,0,0,1,7.9-8.539A8.4349,8.4349,0,0,1-555.0449,567.15Z" transform="translate(720.7552 -166.55)"/><path class="cls-2" d="M-660.4337,390.16c4.3116.063,8.3658,3.9512,8.4849,8.1374.1112,3.9106-4.7836,8.4531-8.9166,8.275a8.5223,8.5223,0,0,1-7.9705-8.4973A8.075,8.075,0,0,1-660.4337,390.16Z" transform="translate(720.7552 -166.55)"/><path class="cls-2" d="M-545.21,336.8594a8.3506,8.3506,0,0,1-8.443,7.9539,8.3838,8.3838,0,0,1-8.202-8.3059,8.3453,8.3453,0,0,1,8.5091-7.9878A8.4128,8.4128,0,0,1-545.21,336.8594Z" transform="translate(720.7552 -166.55)"/><path class="cls-2" d="M-684.727,507.3087c-.1311,4.1151-4.5177,8.2008-8.5886,8-4.3961-.2174-8.31-4.3-8.1364-8.4867a8.6,8.6,0,0,1,8.6471-7.888A8.0707,8.0707,0,0,1-684.727,507.3087Z" transform="translate(720.7552 -166.55)"/><path class="cls-2" d="M-334.44,537.5275a8.3161,8.3161,0,0,1-7.7753,8.6,8.4441,8.4441,0,0,1-8.5636-7.8039c-.1269-4.5328,3.9548-8.9017,8.26-8.841C-338.7866,529.535-334.5317,533.772-334.44,537.5275Z" transform="translate(720.7552 -166.55)"/><path class="cls-2" d="M-588.9222,349.5008a7.96,7.96,0,0,1,8.1919,8.1383,7.83,7.83,0,0,1-8.0806,8.2051,8.0487,8.0487,0,0,1-8.2694-8.1055A8.1742,8.1742,0,0,1-588.9222,349.5008Z" transform="translate(720.7552 -166.55)"/><path class="cls-2" d="M-590.7833,587.9246c.0674,4.1906-4.0191,8.26-8.2361,8.2025a8.22,8.22,0,0,1-8.2136-7.6563,8.5463,8.5463,0,0,1,8.2382-8.7313A8.3393,8.3393,0,0,1-590.7833,587.9246Z" transform="translate(720.7552 -166.55)"/><path class="cls-2" d="M-540.3168,202.2557c-4.0691.0407-8.6105-4.1444-8.6688-7.9887-.0567-3.7362,4.5307-8.2587,8.4465-8.327a8.7635,8.7635,0,0,1,8.44,8.0931A8.4789,8.4789,0,0,1-540.3168,202.2557Z" transform="translate(720.7552 -166.55)"/><path class="cls-2" d="M-306.8356,509.2062a8.2638,8.2638,0,0,1,8.203,8.2262,8.4454,8.4454,0,0,1-8.3366,8.1495c-4.2329-.0288-8.3381-4.1117-8.3482-8.3027C-315.3274,513.1152-311.1775,509.1654-306.8356,509.2062Z" transform="translate(720.7552 -166.55)"/><path class="cls-2" d="M-704.3968,473.1725a7.9433,7.9433,0,0,1-8.0586,8.2654,8.1426,8.1426,0,0,1-8.2994-8.0779,8.0728,8.0728,0,0,1,8.1206-8.25A7.8826,7.8826,0,0,1-704.3968,473.1725Z" transform="translate(720.7552 -166.55)"/><path class="cls-1" d="M-647.62,264.0188c-4.3615,0-7.9379-3.9259-7.8138-8.5766a8.0507,8.0507,0,0,1,7.6351-7.5907c4.68-.0976,8.86,3.9257,8.6725,8.346C-639.2764,259.7257-643.9389,264.0191-647.62,264.0188Z" transform="translate(720.7552 -166.55)"/><path class="cls-2" d="M-616.6894,377.708a8.2308,8.2308,0,0,1-8.0138,8.2964,8.109,8.109,0,0,1-8.361-7.9739,8.3056,8.3056,0,0,1,7.78-8.541A8.0829,8.0829,0,0,1-616.6894,377.708Z" transform="translate(720.7552 -166.55)"/><path class="cls-1" d="M-699.7424,322.6446a8.1853,8.1853,0,0,1,8.2029,7.6378,8.0513,8.0513,0,0,1-7.8137,8.55c-4.0468.1257-8.39-4.1332-8.3736-8.211A8.4369,8.4369,0,0,1-699.7424,322.6446Z" transform="translate(720.7552 -166.55)"/><path class="cls-2" d="M-713.89,513.198c3.5339.4179,5.7222,2.3157,5.9474,5.684.2369,3.5439-2.1569,5.6949-5.3639,5.9492a5.3885,5.3885,0,0,1-6.0924-5.2074C-719.6635,515.9606-717.1325,514.0667-713.89,513.198Z" transform="translate(720.7552 -166.55)"/><path class="cls-2" d="M-695.8886,425.4552c-3.0364-.8576-5.2968-2.5878-5.5361-5.9716-.2145-3.0328,3.1665-6.226,6.1126-5.6952,3.1792.5728,5.6438,2.5058,5.3455,5.9868C-690.2415,422.9826-692.3738,425.0311-695.8886,425.4552Z" transform="translate(720.7552 -166.55)"/><path class="cls-1" d="M-673.8924,364.4956c-.3493,3.7639-2.7292,5.7519-5.8476,5.7955a5.45,5.45,0,0,1-5.6555-5.7034,5.62,5.62,0,0,1,5.801-5.64C-676.1979,358.949-674.4764,361.4255-673.8924,364.4956Z" transform="translate(720.7552 -166.55)"/><path class="cls-1" d="M-706.7889,244.3836c.3481-3.8374,2.9088-5.58,6.0456-5.3441,3,.2256,4.9954,2.6622,4.9638,5.8617-.0336,3.4-2.3591,5.2206-5.48,5.1437C-704.652,249.9614-706.5521,247.74-706.7889,244.3836Z" transform="translate(720.7552 -166.55)"/></svg>